# xmcd CD database file
#
# Track frame offsets:
#	150
#	22077
#	41790
#	62340
#	79097
#	96230
#	111947
#	131527
#	150930
#	167390
#	184407
#	201605
#	219042
#	234650
#	253215
#	281457
#
# Disc length: 4440 seconds
#
# Revision: 1
# Processed by: cddbd v1.5.1PL2 Copyright (c) Steve Scherf et al.
# Submitted via: CDex 1.60beta1
#
DISCID=dd115610
DTITLE=東方神起 - TRI-ANGLE
DYEAR=2005
DGENRE=Pop
TTITLE0=I believe
TTITLE1=Thanks to
TTITLE2=TRI-ANGLE(Performed by東方神起, BoA and The TRAX) -Extended version
TTITLE3=A Heartbeat away
TTITLE4=Whatever they say(Accapella version)
TTITLE5=Million men
TTITLE6=Always
TTITLE7=I never let go
TTITLE8=Kid
TTITLE9=My Girl
TTITLE10=HUG
TTITLE11=My little princess
TTITLE12=The way U are
TTITLE13=TRI-ANGLE(東方神起version)
TTITLE14=HUG(International Ver.):Radio Edit
TTITLE15=data
EXTD=YEAR: 2005
EXTT0=
EXTT1=
EXTT2=
EXTT3=
EXTT4=
EXTT5=
EXTT6=
EXTT7=
EXTT8=
EXTT9=
EXTT10=
EXTT11=
EXTT12=
EXTT13=
EXTT14=
EXTT15=
PLAYORDER=
